<svg xmlns="http://www.w3.org/2000/svg" viewBox="0 0 32 32" fill="none">
  <rect width="32" height="32" fill="#0a0a0a"/>
  <g transform="translate(16 15) scale(0.38)">
    <g fill="#fafafa" stroke="#E30613" stroke-width="1.2">
      <path d="M-4-10 L-12-18 L-14-26 L-12-30" />
      <path d="M-2-11 L-8-20 L-9-26 L-7-30" />
      <path d="M2-11 L8-20 L9-26 L7-30" />
      <path d="M4-10 L12-18 L14-26 L12-30" />
      <path d="M-4 4 L-12 12 L-14 20 L-12 24" />
      <path d="M-2 6 L-7 14 L-8 20 L-6 24" />
      <path d="M2 6 L7 14 L8 20 L6 24" />
      <path d="M4 4 L12 12 L14 20 L12 24" />
    </g>
    <path d="M-10 2 Q0 -4 10 2 L8 14 Q0 18 -8 14 Z" fill="#fafafa"/>
    <circle cx="0" cy="12" r="1.5" fill="#E30613"/>
  </g>
</svg>
