<svg xmlns="http://www.w3.org/2000/svg" width="1200" height="630" viewBox="0 0 1200 630">
  <rect width="1200" height="630" fill="#ffffff"/>
  <g transform="translate(48.75 0) scale(1.05)">
    
  <rect width="1050" height="600" fill="#ffffff"/>
  <rect x="0" y="596" width="1050" height="4" fill="#e30613"/>

  <g font-family="Syne, system-ui, -apple-system, Segoe UI, Helvetica, Arial, sans-serif" text-anchor="middle">
    
    <g transform="translate(482 95) scale(0.88)">
      <g transform="translate(-42.75 2)">
  <g fill="#0a0a0a">
    <path d="m134.75 76.75-1.25 4L147 91.5l6 10.25-4.25-12.5-8.5-10Zm-71.75 0L58 79l-8.5 9.5-4.75 13.25L51 91.25l13.25-10.5Z"/>
    <path d="m59.75 79 .25-.25h1.25l.25.25v1l-.25.25H60l-.25-.25ZM112 76.25l4 8.25L129.5 97l2.25 8.75-4 19.25-8.25 11.75L131 125.5l5-22-5-12.75Z"/>
    <path d="m127.5 91.75.25-.25h1.5l.25.25h.25l.75.75v1.25l-.75.75h-1.5l-.75-.75ZM86 76.25 66.75 91l-5 12.75 5.25 22 11.5 11L70 125l-3.75-19.5L68.5 97 82 84.25Z"/>
    <path d="M68.5 91.5H70l.25.25v2l-.75.75H68l-.75-.75V92.5l.75-.75h.25Zm28.5-20-8 3.75-5.75 15 2 12.75 14 14.25L113 102.5l1.75-15-6.5-13-4.75-2.5Z"/>
    <path d="M102.5 94.5h1l.25.25v6.75l-.25.25h-1.25l-.25-.25V95Zm-8.75-.75h1l.25.5.75.5.25.75v5.75l-.5.5h-1l-.5-.5v-6l-.5-.25v-1Zm11.5-2.5.25-.25h1l.25.25v1.25l-.25.25h-1l-.25-.25ZM91.5 91h1l.25.25v1.25l-.25.25h-1.25L91 92.5v-1Zm7-11 1.5.75v8l1.25.25-1.5 7.25.25 7.25 1.5 3.5H100l-.25-2-1.75.75v1l2.25.5-.25 1.25h-2.25l-1.25-1.25V105l1.5-1.5v-11l-1.5-3 1.5-1.75Zm10.75-8.25L117 76l12.25 4h2.5l1.5-3.5-2-1.75-13-3.5-8.25-.75ZM88 70.5l-11 1.25-10 2.75-2 1.25-.25 1 1.5 3.25h2.25l12.25-4 7.75-4Zm6.5-29-5 5.75 1 5.5-3.5 5.5L91 71l5-1.75 11 1.5 4-10.5-3.75-7.5 1.25-5.25-5-6 2 5.25-1.25 4.25-10.75.25-1-4.75Z"/>
    <path d="m98 53.5.25.25v2l-.5 1-.75.75-.25.5h-1l-.25-.25V56.5l.25-.25v-.75l.25-.25v-.5l.25-.5.75-.75Zm1.75-.25h1l.75.75.25 1 .5.75.25 1.25.25.25v1l-.25.25h-1l-1-1.25-.25-.75-.75-.75V53.5Zm51-14-5.5 9.5L132.5 61 117 62.5l-4.75 2.25-1.25 3 18-1.5 7.5-2.75L146.75 51Z"/>
    <path d="M135.5 59.25h1.5l.25.25v1.75l-.75.75h-1.25l-.75-.75V60l.5-.5h.25ZM46.75 38.5l4 12 10.5 13 7.25 2.75 18.25 1.5-1-3-5-2.25-15.25-1.75-12.75-12Z"/>
    <path d="m60.5 59.5.25-.25h1.75l.75.75v1.5l-.5.5h-1.5l-.75-.75ZM120 0l6 11.25 5 21-1.5 8-16.75 15.5.5 5.5L131.5 46.5l3.75-11.25.25-8-5.75-15.75Z"/>
    <path d="M128.5 42.75h1.5l.75.75V45l-.75.75h-2l-.25-.25v-1.75l.5-.5V43ZM132.25 27h1l.25.25h.25l.75.75v1.75l-.5.5h-1.5l-.75-.75V28l.25-.25v-.5ZM78 0l-9.75 11.25-6 16.5.25 7.25 4 11.75L84.75 61.5l.5-5.75-17-15.5-1.5-8.5L72 11.25Z"/>
    <path d="M67.5 43h.25l.25-.25h1l1 1v1.75l-.25.25H68l-.25-.25h-.25L67 45v-1.25Zm-3.25-15.75h1.25l.5.75v1.75l-.75.5H64l-.75-.75v-1.25Z"/>
  </g>
  <g fill="#e30613">
    <path d="m133.75 108.75-1 .25-.75.75v1l.5.5v.75l-.75 1.75v1l-.5.75-.75 3.75-1.25 3.25v1l-.5.75-.5 2.5h.5l.75-1V125l.5-.75 1-3.5v-1.25l1-2v-1.25l1-2.25.25-1.75 1.25-1.25v-1.75Z"/>
    <path d="M133 110.5v-.5l.25-.25h.25l.5.5-.5.5h-.25Zm-69-1.75-.5.25-.25 2 1.25 1 1.25 5 1 2.25v1.25l.5.75v1l1 2.5v.75l.5.75h.5l-.25-2-1-3.5-.5-.75-.75-4-1.25-3.5.25-3-.75-.75Z"/>
    <path d="m64 110 .25-.25h.5l.25.25v.25l-.5.5-.5-.5Zm43.75-20.75h-1.5l-.5.25-.5.75v1.25l-.25.5-2.75 2.75-.25.75v6l.25.25h1.25l.25-.25v-6l2.5-2.75.5-.25h1l.75-1V90Z"/>
    <path d="m106.5 90.75.25-.25h.25l.25.25v.5l-.25.25-.5-.5Zm-16.25-1.5-.75.5-.25.5v1l1 1.25h1l3 3.25v6h1.25l.25-.25V95l-3.25-3.5v-1.75l-.75-.5Z"/>
    <path d="m91 90.25.5.5V91l-.25.25h-.5L90.5 91v-.25ZM76.5 86h-.75l-2.25 2.25-1.25.75-3 2.75H68l-.75 1v.75l.25.5.5.5h1.5l.5-.5.25-1.25L71 92v-.25l.5-.25.5-.5v-.25l.5-.25 1.75-1.75v-.25l.5-.25 1.75-1.75Zm44.75-.25.25 1h.25l.25.5.75.75h.25l.25.5h.25l.25.5h.25l.5.75.5.25 2.5 2.5.25 1.5.5.5h1.5l.5-.5v-1.75l-.5-.5h-1l-.5-.25-5.5-5h-.25l-.75-.75Zm-63-3.25h-.5v.25l-.25.25h-.25l-.75.75V84l-.25.25H56v.5h.5v-.25l.25-.25h.5l.5-.5v-.5L58 83h.25Zm40-2.5v7.5l-1.5 1.5v2.25l1.5 1.5v10.5L96.5 105v2l1.25 1.5H100l1.5-1.5-.25-2.25-1.5-1.5v-10.5l1.5-1.75v-1.75l-1.5-1.75v-7.25Z"/>
    <path d="M98.75 105h.5l.75.75v.75l-.5.5h-.75l-.25-.25h-.25l-.25-.25v-.75Zm0-16 .25.25h.25l.75.75v.25l-1 1h-.25L98.5 91v-.25l-.5-.5V90l.25-.25v-.25Zm38-10.25-.75.75v1.75h.75l.25.25h.75l.5.25 3 3h.5l.25.25v.5l.5.25.25.5h.5v-.5H143l-.5-.75h-.5l-.25-.25v-.5l-.75-.75v-.25h-.25l-2-2-.25-.5V79.5l-.75-.75Z"/>
    <path d="m137.25 79.75.5.5-.5.5H137l-.25-.25v-.25Zm-77.25-1-.5.5v.25l-.25.25V81l.25.25v.25h1.75l.25-.25h.25L62 81v-1.5l-.75-.75Zm-.25-20.5v.5l.5.5v.25l.25.25V61l.25.25v.5H61l.25.25h1.5l.25-.25v-.25l.25-.25V60l-.75-.75h-1.25l-.75-.75v-.25Zm79.25-1h-.75v.25l-1.75 1.75h-1l-.75.5V60l-.25.25V61l.25.25v.25l.5.5h1.25l.75-.75v-1.5L138 59v-.25l1-1ZM57 55v.5l.75.75v.25h.5l.25.25v.5h.5v-.5h-.25l-.25-.25V56l-1-1Zm84-.25h-.5l-.5.5v.25l-.5.5v.5h.5l1-1ZM98.25 53h-.75l-.25.25H97v.25l-.5.5v.25L96 55v.5l-.25.25v.5l-.25.25v.5l-.25.25v.5L95 58v1.25h.5l1.5-1.5v-.25l.75-.75v-.25l.5-.75Zm1.25-.25v2.75l.25.25.25.75.5.5v.25l.75.75v.25l1.25 1.25h.5v-1.25l-.25-.25v-.5l-.25-.25v-.75l-.25-.25V56l-.25-.25v-.5l-.5-.75V54l-1.25-1.25ZM121 52h-.5l-.25.25v.5h.5l.25-.25Zm9.5-9-.5-.25h-1.25l-.75.75v1.25L122.5 50v.5l-.25.25h-.5l-.25.25v.5h.75l.5-.75 1-.5 5-4.5 1.75-.25.25-.5v-1.5Zm-63.25.25v2l.75.5h1.25l.5.75 1.75 1.25 5.5 5h.75v-.5l-1-.75-2.5-2.75-1-.5-1-1.25L70 45v-1l-1-1.25h-1ZM71 10l-1 .5L64.75 27l-1.25 1v1.75l.5.5h1.25l.75-.5-.25-2.75L71 11Zm55.75-.25 1.25 5 4.25 12.5-.5 2 .75 1h1.5l.5-.5V28l-1.25-1L128 10.75l-.75-1Z"/>
  </g>
</g>
    </g>

    <text x="525" y="270" font-size="52" font-weight="700" fill="#0a0a0a" letter-spacing="-0.03em">spidercorp.xyz</text>
    <text x="525" y="304" font-size="24" font-weight="600" fill="#e30613" letter-spacing="0.1em">WEB &#183; SYSTEMS</text>
    <text x="525" y="346" font-size="28" fill="#525252">Turnkey systems that last.</text>
    <text x="525" y="380" font-size="28" fill="#525252">No full-time developer required.</text>
  </g>

  </g>
</svg>