<svg xmlns="http://www.w3.org/2000/svg" viewBox="0 0 320 200" fill="none" role="img" aria-label="SpiderCorp">
  <title>SpiderCorp</title>
  <g transform="translate(160 62)">
    <g fill="#fafafa" stroke="#E30613" stroke-width="1.2">
      <path d="M-8-18 L-28-32 L-34-48 L-30-58" />
      <path d="M-4-20 L-18-38 L-20-54 L-14-64" />
      <path d="M4-20 L18-38 L20-54 L14-64" />
      <path d="M8-18 L28-32 L34-48 L30-58" />
      <path d="M-8 8 L-30 22 L-36 38 L-32 50" />
      <path d="M-4 12 L-16 28 L-18 42 L-12 52" />
      <path d="M4 12 L16 28 L18 42 L12 52" />
      <path d="M8 8 L30 22 L36 38 L32 50" />
    </g>
    <path d="M-22 4 Q0 -8 22 4 L18 28 Q0 38 -18 28 Z" fill="#fafafa" />
    <path d="M-14 10 L0 2 L14 10 L12 24 Q0 32 -12 24 Z" fill="#fafafa" />
    <path d="M-8 8 L-4 14 L-10 14 Z" fill="#E30613" />
    <path d="M8 8 L4 14 L10 14 Z" fill="#E30613" />
    <g stroke="#E30613" stroke-width="2" stroke-linecap="round" fill="none">
      <path d="M0 14 V28" />
      <path d="M0 20 L-10 26" />
      <path d="M0 20 L10 26" />
      <circle cx="0" cy="28" r="2" fill="#E30613" stroke="none" />
      <circle cx="-10" cy="26" r="2" fill="#E30613" stroke="none" />
      <circle cx="10" cy="26" r="2" fill="#E30613" stroke="none" />
    </g>
  </g>
  <text x="160" y="158" text-anchor="middle" font-family="system-ui, -apple-system, Segoe UI, sans-serif" font-size="28" font-weight="700" letter-spacing="0.02em">
    <tspan fill="#fafafa">spider</tspan><tspan fill="#E30613">corp</tspan>
  </text>
</svg>
