<svg xmlns="http://www.w3.org/2000/svg" fill="none" aria-label="spydercorp" viewBox="0 0 198 165.25"><title>spydercorp</title><g fill="currentColor" class="logo-mark__body"><path d="M119.5 146.25h-6.75l-2.5 1.25-.75 3 .25 7h1.75V149l.75-.75h7.25ZM89 147.75l-.5 7L90 157l14.25.25v-1.75L90.5 155l.25-2.25h13.75V149l-2-2.5-11-.25Z"/><path d="m90.5 148.75.5-.5h10.75l.75.75v1.75l-11.75.25ZM4.75 147.75l-.25 3 1.75 2 12.25.75-.5 2H4.75v2h13L20 156l.25-3-2-2-12-.75.5-2H20l-.25-2H7.5ZM83.25 141.5l-1.75.25-.25 4.5-12.25.5-1.5 2 .25 7 2.5 1.75h13Z"/><path d="m69.5 148.75.5-.5h11.25l.25 7-11.5.25-.75-1ZM135.25 77.25l-1.25 4L147.5 92l6 10.25-4.25-12.5-8.5-10ZM63.5 77.25l-5 2.25L50 89l-4.75 13.25 6.25-10.5 13.25-10.5Z"/><path d="m60.25 79.5.25-.25h1.25l.25.25v1l-.25.25H60.5l-.25-.25ZM112.5 76.75l4 8.25L130 97.5l2.25 8.75-4 19.25-8.25 11.75L131.5 126l5-22-5-12.75Z"/><path d="m128 92.25.25-.25h1.5l.25.25h.25l.75.75v1.25l-.75.75h-1.5l-.75-.75ZM86.5 76.75 67.25 91.5l-5 12.75 5.25 22 11.5 11-8.5-11.75-3.75-19.5L69 97.5l13.5-12.75Z"/><path d="M69 92h1.5l.25.25v2L70 95h-1.5l-.75-.75V93l.75-.75h.25ZM97.5 72l-8 3.75-5.75 15 2 12.75 14 14.25L113.5 103l1.75-15-6.5-13-4.75-2.5Z"/><path d="M103 95h1l.25.25V102l-.25.25h-1.25l-.25-.25v-6.5ZM94.25 94.25h1l.25.5.75.5.25.75v5.75l-.5.5h-1l-.5-.5v-6l-.5-.25v-1ZM105.75 91.75l.25-.25h1l.25.25V93l-.25.25h-1l-.25-.25ZM92 91.5h1l.25.25V93l-.25.25h-1.25L91.5 93v-1ZM99 80.5l1.5.75v8l1.25.25-1.5 7.25.25 7.25 1.5 3.5h-1.5l-.25-2-1.75.75v1l2.25.5-.25 1.25h-2.25L97 107.75v-2.25l1.5-1.5V93L97 90l1.5-1.75ZM109.75 72.25l7.75 4.25 12.25 4h2.5l1.5-3.5-2-1.75-13-3.5-8.25-.75ZM88.5 71l-11 1.25-10 2.75-2 1.25-.25 1 1.5 3.25H69l12.25-4 7.75-4ZM95 42l-5 5.75 1 5.5-3.5 5.5 4 12.75 5-1.75 11 1.5 4-10.5-3.75-7.5L109 48l-5-6 2 5.25-1.25 4.25-10.75.25L93 47Z"/><path d="m98.5 54 .25.25v2l-.5 1-.75.75-.25.5h-1l-.25-.25V57l.25-.25V56l.25-.25v-.5l.25-.5.75-.75ZM100.25 53.75h1l.75.75.25 1 .5.75.25 1.25.25.25v1L103 59h-1l-1-1.25-.25-.75-.75-.75V54ZM151.25 39.75l-5.5 9.5L133 61.5 117.5 63l-4.75 2.25-1.25 3 18-1.5L137 64l10.25-12.5Z"/><path d="M136 59.75h1.5l.25.25v1.75l-.75.75h-1.25l-.75-.75V60.5l.5-.5h.25ZM47.25 39l4 12 10.5 13L69 66.75l18.25 1.5-1-3-5-2.25L66 61.25l-12.75-12Z"/><path d="m61 60 .25-.25H63l.75.75V62l-.5.5h-1.5l-.75-.75ZM120 0l6.5 11.75 5 21-1.5 8-16.75 15.5.5 5.5L132 47l3.75-11.25.25-8L130.25 12Z"/><path d="M129 43.25h1.5l.75.75v1.5l-.75.75h-2l-.25-.25v-1.75l.5-.5v-.25ZM132.75 27.5h1l.25.25h.25l.75.75v1.75l-.5.5H133l-.75-.75v-1.5l.25-.25v-.5ZM78.75 0l-10 11.75-6 16.5.25 7.25 4 11.75L85.25 62l.5-5.75-17-15.5-1.5-8.5 5.25-20.5Z"/><path d="M68 43.5h.25l.25-.25h1l1 1V46l-.25.25H68.5l-.25-.25H68l-.5-.5v-1.25ZM64.75 27.75H66l.5.75v1.75l-.75.5H64.5l-.75-.75v-1.25Z"/></g><g fill="#e30613" class="logo-mark__accent"><path d="M177.75 146.25v16.25H180l.25-5 11.25.25 2.25-1.5.5-1.25v-6l-1.25-2.25-1-.5Z"/><path d="m180 148.75.25-.25h11l.5.5v5.75l-.5.5h-11L180 155ZM174 146.25h-8.5l-1.25.75-.75 1.5v8.75l.5.5h1.75v-8.5l.75-.75h7.25l.25-.25ZM143.25 147.5l-.5 1.25V155l.5 1.25 1 1 1.5.5H156l2-.75 1-1.5v-7l-.75-1.5-.75-.5-12.75-.25Z"/><path d="m145.25 149 .5-.5H156l.75.75v5.25l-.75.75h-10.25l-.5-.5v-3.25l-.25-.25ZM123.75 147.5l-.5 1v6.5l1.5 2.25 1.5.5H138l.5-.5-.25-2h-12l-.75-1v-4.75l.75-1h12.25v-2.25h-13.25ZM134.25 109.25l-1 .25-.75.75v1l.5.5v.75l-.75 1.75v1l-.5.75-.75 3.75-1.25 3.25v1l-.5.75-.5 2.5h.5l.75-1v-.75l.5-.75 1-3.5V120l1-2v-1.25l1-2.25.25-1.75 1.25-1.25v-1.75Z"/><path d="M133.5 111v-.5l.25-.25h.25l.5.5-.5.5h-.25ZM64.5 109.25l-.5.25-.25 2 1.25 1 1.25 5 1 2.25V121l.5.75v1l1 2.5v.75l.5.75h.5l-.25-2-1-3.5-.5-.75-.75-4L66 113l.25-3-.75-.75Z"/><path d="m64.5 110.5.25-.25h.5l.25.25v.25l-.5.5-.5-.5ZM108.25 89.75h-1.5l-.5.25-.5.75V92l-.25.5-2.75 2.75-.25.75v6l.25.25H104l.25-.25v-6l2.5-2.75.5-.25h1l.75-1v-1.5Z"/><path d="m107 91.25.25-.25h.25l.25.25v.5l-.25.25-.5-.5ZM90.75 89.75l-.75.5-.25.5v1l1 1.25h1l3 3.25v6H96l.25-.25v-6.5L93 92v-1.75l-.75-.5Z"/><path d="m91.5 90.75.5.5v.25l-.25.25h-.5L91 91.5v-.25ZM77 86.5h-.75L74 88.75l-1.25.75-3 2.75H68.5l-.75 1V94l.25.5.5.5H70l.5-.5.25-1.25.75-.75v-.25L72 92l.5-.5v-.25L73 91l1.75-1.75V89l.5-.25L77 87ZM121.75 86.25l.25 1h.25l.25.5.75.75h.25l.25.5h.25l.25.5h.25l.5.75.5.25L128 93l.25 1.5.5.5h1.5l.5-.5v-1.75l-.5-.5h-1l-.5-.25-5.5-5H123l-.75-.75ZM58.75 83h-.5v.25l-.25.25h-.25l-.75.75v.25l-.25.25h-.25v.5h.5V85l.25-.25h.5l.5-.5v-.5l.25-.25h.25ZM98.75 80.5V88l-1.5 1.5v2.25l1.5 1.5v10.5L97 105.5v2l1.25 1.5h2.25l1.5-1.5-.25-2.25-1.5-1.5v-10.5l1.5-1.75v-1.75l-1.5-1.75v-7.25Z"/><path d="M99.25 105.5h.5l.75.75v.75l-.5.5h-.75l-.25-.25h-.25l-.25-.25v-.75ZM99.25 89.5l.25.25h.25l.75.75v.25l-1 1h-.25L99 91.5v-.25l-.5-.5v-.25l.25-.25V90ZM137.25 79.25l-.75.75v1.75h.75l.25.25h.75l.5.25 3 3h.5l.25.25v.5l.5.25.25.5h.5v-.5h-.25l-.5-.75h-.5l-.25-.25v-.5l-.75-.75v-.25h-.25l-2-2-.25-.5V80l-.75-.75Z"/><path d="m137.75 80.25.5.5-.5.5h-.25l-.25-.25v-.25ZM60.5 79.25l-.5.5V80l-.25.25v1.25l.25.25V82h1.75l.25-.25h.25l.25-.25V80l-.75-.75ZM60.25 58.75v.5l.5.5V60l.25.25v1.25l.25.25v.5h.25l.25.25h1.5l.25-.25V62l.25-.25V60.5l-.75-.75h-1.25L61 59v-.25ZM139.5 57.75h-.75V58L137 59.75h-1l-.75.5v.25l-.25.25v.75l.25.25V62l.5.5H137l.75-.75v-1.5l.75-.75v-.25l1-1ZM57.5 55.5v.5l.75.75V57h.5l.25.25v.5h.5v-.5h-.25L59 57v-.5l-1-1ZM141.5 55.25h-.5l-.5.5V56l-.5.5v.5h.5l1-1ZM98.75 53.5H98l-.25.25h-.25V54l-.5.5v.25l-.5.75v.5l-.25.25v.5L96 57v.5l-.25.25v.5l-.25.25v1.25h.5l1.5-1.5V58l.75-.75V57l.5-.75ZM100 53.25V56l.25.25.25.75.5.5v.25l.75.75v.25L103 60h.5v-1.25l-.25-.25V58l-.25-.25V57l-.25-.25v-.25l-.25-.25v-.5L102 55v-.5l-1.25-1.25ZM121.5 52.5h-.5l-.25.25v.5h.5l.25-.25ZM131 43.5l-.5-.25h-1.25l-.75.75v1.25L123 50.5v.5l-.25.25h-.5l-.25.25v.5h.75l.5-.75 1-.5 5-4.5L131 46l.25-.5V44ZM67.75 43.75v2l.75.5h1.25l.5.75L72 48.25l5.5 5h.75v-.5l-1-.75-2.5-2.75-1-.5-1-1.25-2.25-2v-1l-1-1.25h-1ZM71.5 10.5l-1 .5-5.25 16.5-1.25 1v1.75l.5.5h1.25l.75-.5-.25-2.75 5.25-16ZM127.25 10.25l1.25 5 4.25 12.5-.5 2 .75 1h1.5l.5-.5V28.5l-1.25-1-5.25-16.25-.75-1Z"/></g></svg>