<svg xmlns="http://www.w3.org/2000/svg" viewBox="0 0 80 80" fill="none" role="img" aria-label="spydercorp mark">
  <g transform="translate(40 38)">
    <g fill="#fafafa" stroke="#E30613" stroke-width="1">
      <path d="M-4-10 L-12-18 L-14-26 L-12-30" />
      <path d="M-2-11 L-8-20 L-9-26 L-7-30" />
      <path d="M2-11 L8-20 L9-26 L7-30" />
      <path d="M4-10 L12-18 L14-26 L12-30" />
      <path d="M-4 4 L-12 12 L-14 20 L-12 24" />
      <path d="M-2 6 L-7 14 L-8 20 L-6 24" />
      <path d="M2 6 L7 14 L8 20 L6 24" />
      <path d="M4 4 L12 12 L14 20 L12 24" />
    </g>
    <path d="M-10 2 Q0 -4 10 2 L8 14 Q0 18 -8 14 Z" fill="#fafafa" />
    <path d="M-6 5 L0 1 L6 5 L5 12 Q0 15 -5 12 Z" fill="#fafafa" />
    <path d="M-4 5 L-2 8 L-5 8 Z" fill="#E30613" />
    <path d="M4 5 L2 8 L5 8 Z" fill="#E30613" />
    <g stroke="#E30613" stroke-width="1.2" stroke-linecap="round" fill="none">
      <path d="M0 7 V14" />
      <path d="M0 10 L-5 13" />
      <path d="M0 10 L5 13" />
      <circle cx="0" cy="14" r="1.2" fill="#E30613" stroke="none" />
      <circle cx="-5" cy="13" r="1.2" fill="#E30613" stroke="none" />
      <circle cx="5" cy="13" r="1.2" fill="#E30613" stroke="none" />
    </g>
  </g>
</svg>
